# xmcd
#
# Track frame offsets:
# 150
# 18752
# 41497
# 61305
# 81968
# 99543
# 118312
# 139003
# 159027
# 179267
# 195324
# 214709
# 236686
# 259473
#
# Disc length: 3707 seconds
#
#
# Revision: 0
# Processed by: cddbd v1.5.2PL0 Copyright (c) Steve Scherf et al.
# Submitted via: FreeRIP 2.96 
#
DISCID=b80e790e
DTITLE=Joanna - Ao vivo em Portugal
DYEAR=2006
DGENRE=Latin
TTITLE0=A paixão
TTITLE1=Do fundo do meu coração
TTITLE2=Amor alheio
TTITLE3=Sozinha
TTITLE4=Lejania
TTITLE5=Momentos
TTITLE6=Barco negro
TTITLE7=Estranha forma de vida
TTITLE8=Codinome beija-flor
TTITLE9=Tempos modernos
TTITLE10=Amanhã talvez
TTITLE11=Amor bandido
TTITLE12=Colher de pau
TTITLE13=Tô fazendo falta
EXTD=
EXTT0=
EXTT1=
EXTT2=
EXTT3=
EXTT4=
EXTT5=
EXTT6=
EXTT7=
EXTT8=
EXTT9=
EXTT10=
EXTT11=
EXTT12=
EXTT13=
PLAYORDER=
